<svg preserveAspectRatio="none" width="100%" height="100%" overflow="visible" style="display: block;" viewBox="0 0 128.243 39.1987" fill="none" xmlns="http://www.w3.org/2000/svg">
<g id="accenture logo">
<path id="Vector" d="M118.683 23.2061H124.229C124.139 21.1695 123.163 20.3065 121.501 20.3065C120.206 20.3065 119.006 20.971 118.67 23.2105L118.683 23.2061ZM121.622 31.9828C117.348 31.9828 114.454 29.5966 114.454 25.0141V24.7639C114.454 20.1382 117.528 17.6053 121.496 17.6053C125.17 17.6053 128.243 19.5384 128.243 24.0993V25.7606H118.638C118.795 28.2288 119.933 29.1824 121.712 29.1824C123.293 29.1824 124.139 28.3927 124.431 27.4003H128.22C127.772 29.9893 125.483 31.9828 121.604 31.9828H121.622ZM104.559 17.8987H108.703V20.4273C109.572 18.5805 110.942 17.7304 113.137 17.7304V21.506C110.329 21.506 108.703 22.3173 108.703 24.5999V31.6937H104.559V17.8858V17.8987ZM101.576 31.7066H97.4319V29.6613C96.7421 30.9558 95.3399 31.9828 93.1315 31.9828C90.484 31.9828 88.5219 30.4682 88.5219 27.2363V17.8987H92.688V26.6495C92.688 28.2288 93.3554 28.9753 94.8248 28.9753C96.2941 28.9753 97.4319 28.1123 97.4319 26.4251V17.8987H101.576V31.7066V31.7066ZM83.1777 13.7477V17.8987H86.0044V20.7811H83.1777V27.314C83.1777 28.3323 83.6884 28.807 84.6471 28.807C85.1395 28.818 85.63 28.7419 86.094 28.5826V31.6031C85.3365 31.7845 84.5585 31.8743 83.778 31.8706C80.5482 31.8706 79.0341 30.5028 79.0341 27.7239V20.7811H77.296V17.8987H79.0341V15.3097L83.1777 13.7305V13.7477ZM62.3923 17.8987H66.5135V19.9699C67.2482 18.6754 68.7175 17.6053 70.9931 17.6053C73.6809 17.6053 75.4459 19.1199 75.4459 22.4597V31.6937H71.3291V23.0638C71.3291 21.4672 70.6169 20.7423 69.1251 20.7423C67.6334 20.7423 66.518 21.5708 66.518 23.2924V31.6937H62.3967V17.8858L62.3923 17.8987ZM50.2749 23.2061H55.8206C55.7311 21.1695 54.7545 20.3065 53.106 20.3065C51.8114 20.3065 50.6108 20.971 50.2749 23.2105V23.2061ZM53.218 31.9828C48.9623 31.9828 46.0506 29.5966 46.0506 25.0141V24.7639C46.0506 20.1382 49.1281 17.6053 53.0925 17.6053C56.7658 17.6053 59.8389 19.5384 59.8389 24.0993V25.7606H50.2301C50.3869 28.2288 51.5247 29.1824 53.3031 29.1824C54.8844 29.1824 55.7311 28.3927 56.0222 27.4003H59.8299C59.382 29.9893 57.0929 31.9828 53.218 31.9828V31.9828ZM37.714 31.9828C33.6151 31.9828 30.6496 29.5966 30.6496 24.9494V24.7639C30.6496 20.0951 33.8122 17.6053 37.7588 17.6053C41.1185 17.6053 43.8824 19.2062 44.2184 22.8135H40.2719C40.0076 21.4672 39.2729 20.5956 37.8215 20.5956C36.0879 20.5956 34.8605 21.8901 34.8605 24.5999V25.0314C34.8605 27.8318 35.9311 29.0961 37.8663 29.0961C39.2729 29.0961 40.3167 28.1209 40.5541 26.6279H44.3214C44.0527 29.7606 41.7591 32.0001 37.7274 32.0001L37.714 31.9828ZM22.322 31.9828C18.2231 31.9828 15.2576 29.5966 15.2576 24.9494V24.7639C15.2576 20.0951 18.4202 17.6053 22.3623 17.6053C25.7265 17.6053 28.4904 19.2062 28.8488 22.8135H24.8799C24.6156 21.4672 23.8809 20.5956 22.4519 20.5956C20.6959 20.5956 19.4685 21.8901 19.4685 24.5999V25.0314C19.4685 27.8318 20.5391 29.0961 22.4743 29.0961C23.8809 29.0961 24.9247 28.1209 25.1621 26.6279H28.925C28.6607 29.7606 26.3671 32.0001 22.3354 32.0001L22.322 31.9828ZM8.84279 27.1069V25.7822H7.19428C5.16949 25.7822 4.12126 26.3216 4.12126 27.5427V27.6894C4.12126 28.6214 4.74393 29.2859 6.12365 29.2859C7.50338 29.2859 8.84279 28.5394 8.84279 27.1285V27.1069ZM4.87831 31.9828C2.22637 31.9828 0 30.7185 0 27.9181V27.7498C0 24.3712 3.18502 23.2493 6.9927 23.2493H8.84279V22.6064C8.84279 21.2169 8.17532 20.3885 6.66121 20.3885C5.277 20.3885 4.54234 21.1134 4.42139 22.1706H0.465881C0.734659 19.1199 3.3418 17.6053 6.86279 17.6053C10.3838 17.6053 12.964 19.0379 12.964 22.464V31.698H8.90998V30.0928C8.22012 31.1112 6.86279 31.9828 4.87831 31.9828Z" fill="var(--fill-0, black)"/>
<path id="Vector_2" fill-rule="evenodd" clip-rule="evenodd" d="M75.3926 9.38506L82.7616 6.68389L75.3926 3.84032V0L88.0699 4.97516V8.10352L75.3926 13.2211V9.38506Z" fill="var(--fill-0, #A100FF)"/>
</g>
</svg>
