<svg preserveAspectRatio="none" width="100%" height="100%" overflow="visible" style="display: block;" viewBox="0 0 18.0318 18.5059" fill="none" xmlns="http://www.w3.org/2000/svg">
<g id="Container">
<path id="Icon" d="M1 18.5059V15.5059H4.1L1.55 7.15588C1.1 6.90588 0.729167 6.53922 0.4375 6.05588C0.145833 5.57255 0 5.05588 0 4.50588C0 3.67255 0.291667 2.96422 0.875 2.38088C1.45833 1.79755 2.16667 1.50588 3 1.50588C3.65 1.50588 4.22917 1.69338 4.7375 2.06838C5.24583 2.44338 5.6 2.92255 5.8 3.50588H9V2.50588C9 2.22255 9.09583 1.98505 9.2875 1.79338C9.47917 1.60172 9.71667 1.50588 10 1.50588C10.15 1.50588 10.2958 1.53922 10.4375 1.60588C10.5792 1.67255 10.7 1.77255 10.8 1.90588V1.90588L12.5 0.305882C12.65 0.155882 12.8292 0.060049 13.0375 0.0183824C13.2458 -0.0232843 13.45 0.00588235 13.65 0.105882L17.55 1.90588C17.75 2.00588 17.8875 2.15172 17.9625 2.34338C18.0375 2.53505 18.0333 2.72255 17.95 2.90588C17.85 3.10588 17.7042 3.23505 17.5125 3.29338C17.3208 3.35172 17.1333 3.33922 16.95 3.25588L13.35 1.60588L11 3.80588V5.20588L13.35 7.35588L16.95 5.70588C17.1333 5.62255 17.325 5.61422 17.525 5.68088C17.725 5.74755 17.8667 5.87255 17.95 6.05588C18.05 6.25588 18.0583 6.44755 17.975 6.63088C17.8917 6.81422 17.75 6.95588 17.55 7.05588L13.65 8.90588C13.45 9.00588 13.2458 9.03505 13.0375 8.99338C12.8292 8.95172 12.65 8.85588 12.5 8.70588L10.8 7.10588V7.10588C10.7 7.20588 10.5792 7.29755 10.4375 7.38088C10.2958 7.46422 10.15 7.50588 10 7.50588C9.71667 7.50588 9.47917 7.41005 9.2875 7.21838C9.09583 7.02672 9 6.78922 9 6.50588V5.50588H5.8C5.75 5.63922 5.69583 5.76422 5.6375 5.88088C5.57917 5.99755 5.5 6.12255 5.4 6.25588L10.4 15.5059H14V18.5059H1V18.5059M3 5.50588C3.28333 5.50588 3.52083 5.41005 3.7125 5.21838C3.90417 5.02672 4 4.78922 4 4.50588C4 4.22255 3.90417 3.98505 3.7125 3.79338C3.52083 3.60172 3.28333 3.50588 3 3.50588C2.71667 3.50588 2.47917 3.60172 2.2875 3.79338C2.09583 3.98505 2 4.22255 2 4.50588C2 4.78922 2.09583 5.02672 2.2875 5.21838C2.47917 5.41005 2.71667 5.50588 3 5.50588V5.50588" fill="var(--fill-0, #F4DAFF)"/>
</g>
</svg>
