<svg preserveAspectRatio="none" width="100%" height="100%" overflow="visible" style="display: block;" viewBox="0 0 190.588 26.5786" fill="none" xmlns="http://www.w3.org/2000/svg">
<g id="TrueChoice_AI_Logo_Color 1" clip-path="url(#clip0_0_4)">
<path id="Vector" d="M160.373 11.3446L157.203 14.5015L160.373 17.6584L163.544 14.5015L160.373 11.3446Z" fill="var(--fill-0, #0047BB)"/>
<path id="Vector_2" d="M22.1213 8.80688L17.699 13.2101L22.1213 17.6134L26.5436 13.2101L22.1213 8.80688Z" fill="var(--fill-0, #0047BB)"/>
<path id="Vector_3" d="M17.7026 13.2064L8.85405 22.0168L13.2764 26.42L22.1249 17.6096L17.7026 13.2064Z" fill="var(--fill-0, #E63888)"/>
<path id="Vector_4" d="M13.2764 2.0657e-05L8.85405 4.40328L17.7026 13.2137L22.1249 8.81043L13.2764 2.0657e-05Z" fill="var(--fill-0, #FFC658)"/>
<path id="Vector_5" d="M4.42239 8.80519L7.62939e-05 13.2084L4.42239 17.6117L8.84471 13.2084L4.42239 8.80519Z" fill="var(--fill-0, #0047BB)"/>
<path id="Vector_6" d="M45.7501 6.0316V9.05397H41.4648V21.7434H37.6258V9.05397H33.3852V6.0316H45.7501Z" fill="var(--fill-0, white)"/>
<path id="Vector_7" d="M52.4101 9.87652C53.1491 9.43593 53.9951 9.20538 54.8563 9.20982V13.2767H53.7627C52.9271 13.2268 52.0986 13.4533 51.4059 13.9211C50.8494 14.3508 50.571 15.0767 50.571 16.099V21.7437H46.7544V9.35205H50.571V11.6855C51.0277 10.943 51.6591 10.3222 52.4101 9.87652Z" fill="var(--fill-0, white)"/>
<path id="Vector_8" d="M68.5787 9.35195V21.7525H64.7443V19.5302C64.3949 20.2508 63.8406 20.8535 63.1505 21.2636C62.4044 21.704 61.5493 21.9273 60.682 21.9081C60.0447 21.9376 59.4085 21.8252 58.8202 21.5792C58.2319 21.3331 57.7058 20.9596 57.2805 20.4858C56.4385 19.5376 56.0174 18.2338 56.0174 16.5745V9.35195H59.8117V16.0767C59.7663 16.7936 60.0032 17.4999 60.4722 18.0457C60.7024 18.2827 60.9808 18.4676 61.2887 18.588C61.597 18.7084 61.9273 18.7614 62.2579 18.7435C62.5982 18.7604 62.9379 18.7037 63.2539 18.577C63.5699 18.4504 63.8545 18.257 64.0879 18.0101C64.5689 17.4233 64.8081 16.6767 64.7576 15.9211V9.35195H68.5787Z" fill="var(--fill-0, white)"/>
<path id="Vector_9" d="M82.0151 16.2322H73.3773C73.4221 17.1656 73.66 17.8367 74.0914 18.2456C74.54 18.6572 75.1335 18.876 75.7432 18.8545C76.2462 18.8758 76.7418 18.727 77.1492 18.4323C77.5103 18.1654 77.7699 17.7847 77.886 17.3523H81.9256C81.7684 18.2105 81.4005 19.0167 80.8544 19.699C80.2936 20.3973 79.5747 20.9532 78.7563 21.3213C77.7917 21.7364 76.747 21.9356 75.6965 21.9049C74.646 21.8742 73.6153 21.6143 72.6766 21.1435C71.7301 20.636 70.9542 19.8634 70.4446 18.9212C69.89 17.8825 69.6132 16.7193 69.6411 15.5433C69.6103 14.3653 69.8839 13.1991 70.4356 12.1565C70.9418 11.2117 71.7188 10.4382 72.6675 9.93415C73.6801 9.43266 74.7954 9.17167 75.9263 9.17167C77.0569 9.17167 78.1725 9.43266 79.1848 9.93415C80.1011 10.4189 80.8576 11.1566 81.3632 12.0587C81.8886 13.022 82.1535 14.105 82.1311 15.2011C82.1275 15.5478 82.0886 15.8933 82.0151 16.2322ZM77.6092 12.8009C77.1415 12.385 76.5305 12.1652 75.9039 12.1876C75.2651 12.1657 74.6421 12.3884 74.163 12.8098C73.6739 13.2927 73.3939 13.9465 73.3819 14.6321H78.2474C78.2817 14.299 78.2425 13.9625 78.132 13.6461C78.0218 13.3297 77.8432 13.0413 77.6092 12.8009Z" fill="var(--fill-0, white)"/>
<path id="Vector_10" d="M95.5849 7.33431C96.8503 8.30015 97.7605 9.65462 98.1741 11.1878H96.0312C95.6549 10.1836 94.9769 9.31918 94.0894 8.71215C93.1186 8.07229 91.9722 7.74916 90.8086 7.78764C89.8381 7.77205 88.8829 8.03096 88.0544 8.53437C87.2253 9.05109 86.5599 9.79069 86.1349 10.6678C85.6445 11.6815 85.4027 12.7965 85.4296 13.9213C85.404 15.0359 85.6458 16.1406 86.1349 17.1437C86.5528 18.0204 87.2162 18.7583 88.0454 19.2684C88.8745 19.7786 89.8339 20.0394 90.8086 20.0193C91.9712 20.0571 93.1173 19.7357 94.0894 19.0993C94.9778 18.4915 95.6562 17.6253 96.0312 16.6192H98.1741C97.7614 18.1541 96.8513 19.5104 95.5849 20.4771C94.2012 21.4594 92.5287 21.9551 90.8309 21.8861C89.4605 21.9125 88.1095 21.5635 86.9248 20.8771C85.7943 20.2033 84.8783 19.2249 84.2822 18.0548C83.632 16.7777 83.3056 15.3617 83.3316 13.9301C83.3053 12.4886 83.6317 11.0624 84.2822 9.77442C84.8767 8.60091 85.793 7.61919 86.9248 6.94319C88.1082 6.25354 89.4599 5.90283 90.8309 5.9298C92.5281 5.85982 94.2006 6.35392 95.5849 7.33431Z" fill="var(--fill-0, white)"/>
<path id="Vector_11" d="M109.646 10.712C110.539 11.6216 110.978 12.9357 110.963 14.6543V21.7436H108.937V14.8321C109.004 13.8125 108.668 12.8072 107.999 12.032C107.667 11.701 107.269 11.443 106.831 11.2746C106.393 11.1062 105.924 11.0311 105.455 11.0542C104.957 11.0322 104.46 11.1173 103.998 11.3037C103.535 11.49 103.119 11.7733 102.777 12.1342C102.107 12.8543 101.772 13.9121 101.772 15.2766V21.7436H99.7411V5.29836H101.772V12.4098C102.041 11.4764 102.63 10.6664 103.437 10.1208C104.252 9.58149 105.213 9.30239 106.191 9.32076C106.833 9.29856 107.472 9.41094 108.067 9.6506C108.663 9.89029 109.2 10.2519 109.646 10.712Z" fill="var(--fill-0, white)"/>
<path id="Vector_12" d="M121.601 10.1432C122.525 10.6452 123.284 11.4013 123.788 12.3211C124.333 13.3469 124.605 14.4945 124.578 15.6546C124.607 16.812 124.335 17.9572 123.788 18.9792C123.283 19.8953 122.524 20.6469 121.601 21.1437C120.623 21.6404 119.54 21.8994 118.443 21.8994C117.345 21.8994 116.263 21.6404 115.284 21.1437C114.358 20.6473 113.594 19.896 113.084 18.9792C112.529 17.96 112.251 16.8137 112.28 15.6546C112.253 14.4929 112.53 13.3441 113.084 12.3211C113.593 11.4005 114.357 10.6446 115.284 10.1432C116.263 9.64648 117.345 9.3875 118.443 9.3875C119.54 9.3875 120.623 9.64648 121.601 10.1432ZM116.423 11.6544C115.787 11.9995 115.266 12.5215 114.923 13.1567C114.524 13.9277 114.328 14.7875 114.356 15.6546C114.33 16.5159 114.525 17.3695 114.923 18.1347C115.264 18.7697 115.786 19.2906 116.423 19.6325C117.044 19.95 117.733 20.1156 118.431 20.1156C119.13 20.1156 119.819 19.95 120.44 19.6325C121.075 19.2913 121.594 18.77 121.931 18.1347C122.334 17.3714 122.532 16.5166 122.503 15.6546C122.533 14.7867 122.336 13.9259 121.931 13.1567C121.593 12.521 121.075 11.9985 120.44 11.6544C119.819 11.3369 119.13 11.1714 118.431 11.1714C117.733 11.1714 117.044 11.3369 116.423 11.6544Z" fill="var(--fill-0, white)"/>
<path id="Vector_13" d="M126.096 5.06723C126.382 4.84303 126.736 4.72113 127.1 4.72113C127.465 4.72113 127.818 4.84303 128.105 5.06723C128.34 5.30365 128.472 5.62318 128.472 5.95615C128.472 6.28916 128.34 6.60869 128.105 6.84511C127.817 7.06711 127.464 7.18762 127.1 7.18762C126.737 7.18762 126.383 7.06711 126.096 6.84511C125.86 6.60869 125.728 6.28916 125.728 5.95615C125.728 5.62318 125.86 5.30365 126.096 5.06723ZM128.105 9.543V21.7436H126.074V9.543H128.105Z" fill="var(--fill-0, white)"/>
<path id="Vector_14" d="M139.778 10.6318C140.808 11.4667 141.485 12.6565 141.675 13.9652H139.532C139.475 13.56 139.338 13.17 139.129 12.8177C138.92 12.4653 138.642 12.1575 138.314 11.9118C137.67 11.4733 136.919 11.2177 136.14 11.1722C135.362 11.1268 134.585 11.2934 133.895 11.654C133.285 12.0061 132.793 12.5284 132.479 13.1563C132.1 13.9335 131.916 14.7907 131.944 15.6542C131.916 16.5192 132.1 17.378 132.479 18.1565C132.793 18.7837 133.285 19.3048 133.895 19.6544C134.585 20.0162 135.363 20.1826 136.141 20.1356C136.921 20.0885 137.672 19.8299 138.314 19.3877C138.979 18.8865 139.417 18.1433 139.532 17.321H141.675C141.492 18.6357 140.813 19.8319 139.778 20.6678C138.667 21.5168 137.293 21.9524 135.894 21.8989C134.804 21.9215 133.728 21.6611 132.77 21.1434C131.863 20.6438 131.123 19.8915 130.64 18.9788C130.104 17.9537 129.838 16.8097 129.868 15.6542C129.84 14.4961 130.106 13.3495 130.64 12.3207C131.123 11.4045 131.863 10.6478 132.77 10.1428C133.728 9.62719 134.805 9.36691 135.894 9.38727C137.295 9.33612 138.67 9.77661 139.778 10.6318Z" fill="var(--fill-0, white)"/>
<path id="Vector_15" d="M154.754 16.0767H144.956C145.001 17.4723 145.398 18.5168 146.148 19.2102C146.895 19.9046 147.885 20.2796 148.907 20.2547C149.788 20.2851 150.654 20.0241 151.371 19.5124C152.024 19.0343 152.462 18.3188 152.589 17.5212H154.754C154.613 18.3551 154.265 19.1409 153.743 19.8081C153.221 20.4752 152.541 21.0029 151.763 21.3436C150.892 21.7264 149.948 21.916 148.996 21.8992C147.906 21.9218 146.829 21.6614 145.871 21.1436C144.971 20.6402 144.236 19.8885 143.755 18.9791C143.223 17.9528 142.958 16.8093 142.987 15.6545C142.96 14.4969 143.224 13.3509 143.755 12.321C144.24 11.4052 144.982 10.6488 145.889 10.1431C146.848 9.62743 147.924 9.36715 149.014 9.38751C150.104 9.35989 151.182 9.62062 152.138 10.1431C152.992 10.615 153.696 11.3156 154.169 12.1654C154.642 13.023 154.885 13.9873 154.875 14.9655C154.869 15.3388 154.828 15.7107 154.754 16.0767ZM152.344 12.8321C152.02 12.2574 151.53 11.7929 150.938 11.4987C150.334 11.2017 149.669 11.0494 148.996 11.0542C147.959 11.0252 146.952 11.3962 146.184 12.0899C145.425 12.7773 145.015 13.7877 144.956 15.1211H152.79C152.864 14.3313 152.71 13.5368 152.344 12.8321Z" fill="var(--fill-0, white)"/>
<path id="Vector_16" fill-rule="evenodd" clip-rule="evenodd" d="M180.93 21.8435H175.317L174.933 19.2771H169.273L167.977 21.8435H162.389L171.575 4.86191H177.715L180.93 21.8435ZM171.263 15.2714H174.333L173.638 10.5462L171.263 15.2714Z" fill="var(--fill-0, #0047BB)"/>
<path id="Vector_17" d="M187.464 21.8435H182.14L183.808 12.3165H189.133L187.464 21.8435Z" fill="var(--fill-0, #0047BB)"/>
<path id="Vector_18" d="M187.169 4.53774L183.998 7.69466L187.169 10.8515L190.34 7.69466L187.169 4.53774Z" fill="var(--fill-0, #0047BB)"/>
</g>
<defs>
<clipPath id="clip0_0_4">
<rect width="190.588" height="26.5786" fill="white"/>
</clipPath>
</defs>
</svg>
